<?xml version="1.0" standalone="no"?>
<!DOCTYPE svg PUBLIC "-//W3C//DTD SVG 20010904//EN"
 "http://www.w3.org/TR/2001/REC-SVG-20010904/DTD/svg10.dtd">
<svg version="1.0" xmlns="http://www.w3.org/2000/svg"
 width="500.000000pt" height="500.000000pt" viewBox="0 0 500.000000 500.000000"
 preserveAspectRatio="xMidYMid meet">

<g transform="translate(0.000000,500.000000) scale(0.100000,-0.100000)"
fill="#000000" stroke="none">
<path d="M2497 3503 c-10 -10 -8 -83 2 -83 5 0 11 6 14 13 3 10 9 10 26 0 27
-17 26 -18 29 24 1 21 -3 40 -10 45 -16 9 -52 10 -61 1z m53 -28 c0 -8 -9 -15
-20 -15 -11 0 -20 7 -20 15 0 8 9 15 20 15 11 0 20 -7 20 -15z"/>
<path d="M2351 3478 c-19 -52 -22 -68 -12 -68 6 0 11 5 11 11 0 8 12 10 35 6
41 -7 42 -5 14 39 -24 40 -36 43 -48 12z m26 -30 c-16 -10 -21 -2 -13 19 6 15
9 15 16 3 6 -9 5 -17 -3 -22z"/>
<path d="M2656 3484 c-9 -24 -7 -74 3 -74 11 0 20 80 10 86 -4 2 -10 -3 -13
-12z"/>
<path d="M2176 3462 c-8 -13 13 -82 24 -82 6 0 10 6 10 14 0 7 9 16 21 19 15
4 20 12 17 29 -2 18 -10 24 -35 26 -17 2 -34 -1 -37 -6z m54 -16 c0 -21 -21
-31 -30 -15 -5 7 -6 17 -4 21 9 14 34 9 34 -6z"/>
<path d="M2754 3455 c-4 -9 4 -24 17 -36 l24 -20 -27 4 c-35 5 -37 -10 -4 -19
45 -11 65 25 26 46 -29 16 -25 33 6 26 17 -5 23 -3 19 4 -10 15 -55 12 -61 -5z"/>
<path d="M2350 2741 c-81 -26 -148 -91 -170 -163 -20 -68 -16 -166 10 -227 87
-202 413 -201 500 1 30 71 31 176 1 244 -46 102 -114 146 -236 150 -44 2 -91
0 -105 -5z m150 -39 c40 -40 54 -100 54 -227 1 -169 -38 -255 -116 -255 -39 0
-83 44 -99 101 -17 58 -17 252 -1 308 18 58 61 101 102 101 21 0 41 -9 60 -28z"/>
<path d="M1140 2718 c-5 -13 -46 -115 -90 -228 -48 -121 -92 -220 -111 -242
l-30 -38 65 0 65 0 -15 28 c-17 33 -18 82 -2 117 11 24 14 25 110 25 98 0 99
0 110 -27 13 -33 16 -101 4 -125 -8 -17 1 -18 113 -18 l120 0 -29 48 c-16 26
-68 144 -114 262 l-84 215 -51 3 c-45 3 -52 0 -61 -20z m33 -190 c20 -51 39
-101 43 -110 6 -16 -2 -18 -86 -18 -84 0 -91 2 -85 18 4 9 23 59 42 110 20 50
39 92 43 92 3 0 23 -42 43 -92z"/>
<path d="M1566 2713 c21 -41 20 -436 -1 -476 l-15 -29 173 4 c149 3 178 6 217
25 96 44 142 123 142 240 0 93 -34 171 -92 209 -66 44 -120 54 -286 54 l-153
0 15 -27z m299 -26 c42 -42 65 -118 65 -212 0 -167 -68 -262 -170 -240 l-30 7
0 233 c0 255 -3 243 64 244 30 1 45 -6 71 -32z"/>
<path d="M2816 2723 c4 -10 11 -101 14 -203 4 -102 12 -197 17 -211 16 -38 77
-87 125 -100 59 -15 155 -8 203 17 27 14 47 34 63 64 20 40 22 58 22 200 0
145 2 160 24 203 l23 47 -58 0 -59 0 23 -42 c19 -38 22 -61 25 -193 3 -140 1
-153 -20 -195 -18 -36 -31 -48 -66 -60 -58 -20 -117 0 -146 50 -35 59 -35 340
-1 423 7 16 -2 17 -95 17 -94 0 -101 -1 -94 -17z"/>
<path d="M3402 2698 c21 -40 23 -55 23 -223 0 -169 -1 -182 -22 -218 -13 -21
-23 -40 -23 -43 0 -2 26 -4 58 -4 l59 0 -24 48 c-22 45 -23 56 -21 216 l3 169
95 -217 c52 -118 100 -214 105 -212 6 1 53 99 105 216 l95 214 3 -176 c2 -132
-1 -187 -12 -217 l-14 -41 104 0 105 0 -16 30 c-21 42 -22 431 0 473 l14 28
-85 -3 -85 -3 -71 -162 c-40 -90 -75 -163 -78 -163 -4 0 -39 74 -79 165 l-73
165 -94 0 -94 0 22 -42z"/>
<path d="M1533 2066 c-20 -9 -35 -25 -39 -41 -11 -45 9 -70 74 -93 33 -12 63
-30 66 -38 17 -43 -55 -59 -111 -25 -27 17 -32 18 -37 5 -10 -26 -7 -30 34
-49 76 -34 160 -3 160 60 0 39 -22 60 -84 81 -53 18 -67 38 -42 62 14 14 22
15 63 4 37 -10 48 -10 54 0 22 35 -81 60 -138 34z"/>
<path d="M1956 1951 c-31 -71 -56 -131 -56 -135 0 -3 9 -6 21 -6 13 0 23 10
30 30 11 29 12 30 80 30 66 0 69 -1 84 -30 10 -19 23 -30 36 -30 11 0 19 4 17
9 -1 4 -27 65 -57 135 -73 171 -79 171 -155 -3z m121 -38 c-3 -2 -25 -3 -50
-1 l-44 3 25 58 25 59 24 -57 c13 -32 22 -59 20 -62z"/>
<path d="M2400 1945 l0 -135 80 0 c73 0 80 2 80 20 0 18 -7 20 -60 20 l-60 0
0 115 c0 108 -1 115 -20 115 -19 0 -20 -7 -20 -135z"/>
<path d="M2871 2058 c-5 -13 -32 -74 -60 -135 -49 -111 -50 -113 -27 -113 17
0 27 9 36 30 12 29 14 30 82 30 68 0 69 -1 79 -30 8 -22 17 -30 35 -30 27 0
30 -10 -41 150 -40 91 -55 116 -73 118 -15 2 -25 -4 -31 -20z m55 -85 c11 -27
21 -51 22 -55 2 -5 -20 -8 -48 -8 -28 0 -50 3 -48 8 2 4 11 28 22 55 10 26 22
47 26 47 4 0 16 -21 26 -47z"/>
<path d="M3270 1945 c0 -128 1 -135 20 -135 18 0 20 7 20 55 l0 55 75 0 75 0
0 -55 c0 -48 2 -55 20 -55 19 0 20 7 20 135 0 128 -1 135 -20 135 -18 0 -20
-7 -20 -60 l0 -60 -75 0 -75 0 0 60 c0 53 -2 60 -20 60 -19 0 -20 -7 -20 -135z"/>
<path d="M2000 1555 c0 -43 1 -45 29 -45 29 0 61 22 61 41 0 29 -22 49 -55 49
-35 0 -35 0 -35 -45z m60 20 c16 -20 5 -45 -20 -45 -16 0 -20 7 -20 30 0 33
19 40 40 15z"/>
<path d="M2160 1555 c0 -45 0 -45 35 -45 19 0 35 5 35 10 0 6 -11 10 -25 10
-34 0 -32 20 3 21 25 1 26 1 4 7 -13 4 -23 12 -23 17 0 6 10 13 23 17 18 5 15
6 -14 7 l-38 1 0 -45z"/>
<path d="M2320 1558 c10 -24 24 -43 30 -43 6 0 20 19 30 43 10 23 15 42 9 42
-5 0 -16 -14 -23 -32 l-14 -32 -16 32 c-25 48 -38 39 -16 -10z"/>
<path d="M2566 1578 c23 -75 39 -88 50 -43 3 14 10 25 14 25 4 0 11 -11 14
-25 8 -31 24 -32 35 -2 19 50 22 67 12 67 -5 0 -13 -15 -17 -32 l-7 -33 -14
33 c-16 38 -30 41 -39 7 -3 -14 -10 -25 -14 -25 -4 0 -11 11 -14 25 -4 14 -11
25 -17 25 -6 0 -8 -9 -3 -22z"/>
<path d="M2780 1555 c0 -45 0 -45 36 -45 21 0 33 4 29 10 -3 6 -15 10 -26 10
-26 0 -24 18 4 23 l22 4 -22 2 c-33 2 -29 29 5 34 22 3 20 4 -10 6 l-38 1 0
-45z"/>
<path d="M2920 1556 c0 -46 0 -46 34 -46 43 0 58 17 47 56 -6 25 -13 29 -44
32 l-37 3 0 -45z m60 25 c0 -14 -18 -23 -30 -16 -6 4 -8 11 -5 16 8 12 35 12
35 0z m4 -40 c7 -11 -22 -23 -35 -15 -5 3 -9 9 -9 15 0 12 37 12 44 0z"/>
</g>
</svg>
